<?xml version="1.0" encoding="UTF-8"?>
<svg xmlns="http://www.w3.org/2000/svg" viewBox="0 0 720 1600" width="720" height="1600">
  <rect x="20" y="20" width="680" height="1560" rx="40" ry="40" fill="#0F1115" stroke="#2A2D33" stroke-width="2"/>
  <rect x="20" y="20" width="680" height="48" fill="#000000" opacity="0.4"/>

  <g id="top-bar">
    <rect x="40" y="100" width="640" height="72" rx="20" fill="#1A1D22" opacity="0.85"/>
    <path d="M 90 132 L 110 152 L 90 172" stroke="#FFFFFF" stroke-width="3" fill="none" stroke-linecap="round" stroke-linejoin="round"/>
    <text x="140" y="148" font-family="sans-serif" font-size="20" fill="#FFFFFF" font-weight="500">Episode Title &#8212; S01E03</text>
    <text x="140" y="170" font-family="sans-serif" font-size="14" fill="#A0A4AB" font-weight="400">Series Name &#183; 45:21</text>
    <circle cx="610" cy="146" r="22" fill="#2A2D33"/>
    <text x="610" y="153" font-family="sans-serif" font-size="18" fill="#FFFFFF" text-anchor="middle">&#127908;</text>
    <circle cx="660" cy="146" r="22" fill="#2A2D33"/>
    <text x="660" y="153" font-family="sans-serif" font-size="22" fill="#FFFFFF" text-anchor="middle">&#8943;</text>
  </g>

  <g id="video">
    <rect x="40" y="200" width="640" height="900" fill="#000000"/>
    <text x="360" y="650" font-family="sans-serif" font-size="32" fill="#5A5E66" text-anchor="middle">[ VIDEO SURFACE ]</text>
  </g>

  <g id="bottom-block" font-family="sans-serif">
    <rect x="40" y="1100" width="640" height="380" fill="#000000" opacity="0.55"/>
    <rect x="40" y="1100" width="640" height="3" fill="#FFFFFF" opacity="0.0"/>

    <g id="seek-row">
      <rect x="60" y="1140" width="600" height="6" rx="3" fill="#2A2D33"/>
      <rect x="60" y="1140" width="180" height="6" rx="3" fill="#7C5DFF"/>
      <circle cx="240" cy="1143" r="14" fill="#FFFFFF" stroke="#7C5DFF" stroke-width="3"/>
      <text x="60" y="1184" font-size="14" fill="#A0A4AB" font-weight="500">12:34</text>
      <text x="660" y="1184" font-size="14" fill="#A0A4AB" font-weight="500" text-anchor="end">45:21</text>
    </g>

    <g id="top-control-row" transform="translate(0, 1220)">
      <g transform="translate(80, 0)">
        <circle cx="22" cy="22" r="22" fill="none" stroke="#A0A4AB" stroke-width="2.5"/>
        <text x="22" y="28" font-size="18" fill="#A0A4AB" text-anchor="middle">&#128274;</text>
      </g>
      <g transform="translate(180, 0)">
        <circle cx="22" cy="22" r="22" fill="none" stroke="#A0A4AB" stroke-width="2.5"/>
        <text x="22" y="28" font-size="16" fill="#A0A4AB" text-anchor="middle">AB</text>
      </g>
      <g transform="translate(360, 0)">
        <circle cx="22" cy="22" r="22" fill="none" stroke="#A0A4AB" stroke-width="2.5"/>
        <text x="22" y="28" font-size="18" fill="#A0A4AB" text-anchor="middle">&#8869;</text>
      </g>
      <g transform="translate(540, 0)">
        <circle cx="22" cy="22" r="22" fill="none" stroke="#A0A4AB" stroke-width="2.5"/>
        <text x="22" y="28" font-size="18" fill="#A0A4AB" text-anchor="middle">&#9633;</text>
      </g>
    </g>

    <g id="transport-row" transform="translate(0, 1310)">
      <g transform="translate(60, 0)">
        <circle cx="28" cy="28" r="28" fill="none" stroke="#FFFFFF" stroke-width="2.5"/>
        <text x="28" y="36" font-size="20" fill="#FFFFFF" text-anchor="middle" font-weight="600">&#9198;</text>
      </g>
      <g transform="translate(180, 0)">
        <circle cx="28" cy="28" r="28" fill="none" stroke="#FFFFFF" stroke-width="2.5"/>
        <text x="28" y="36" font-size="20" fill="#FFFFFF" text-anchor="middle">&#9198;</text>
      </g>
      <g transform="translate(296, -8)">
        <circle cx="44" cy="44" r="44" fill="#7C5DFF"/>
        <text x="44" y="56" font-size="38" fill="#FFFFFF" text-anchor="middle" font-weight="700">&#9654;</text>
      </g>
      <g transform="translate(456, 0)">
        <circle cx="28" cy="28" r="28" fill="none" stroke="#FFFFFF" stroke-width="2.5"/>
        <text x="28" y="36" font-size="20" fill="#FFFFFF" text-anchor="middle">&#9197;</text>
      </g>
      <g transform="translate(576, 0)">
        <circle cx="28" cy="28" r="28" fill="none" stroke="#FFFFFF" stroke-width="2.5"/>
        <text x="28" y="36" font-size="20" fill="#FFFFFF" text-anchor="middle" font-weight="600">&#9197;</text>
      </g>
    </g>

    <g id="sub-row" transform="translate(0, 1420)">
      <g transform="translate(60, 0)">
        <circle cx="22" cy="22" r="22" fill="none" stroke="#A0A4AB" stroke-width="2.5"/>
        <text x="22" y="28" font-size="16" fill="#A0A4AB" text-anchor="middle" font-weight="600">CC</text>
      </g>
      <g transform="translate(140, 0)">
        <circle cx="22" cy="22" r="22" fill="none" stroke="#A0A4AB" stroke-width="2.5"/>
        <text x="22" y="28" font-size="18" fill="#A0A4AB" text-anchor="middle">&#9834;</text>
      </g>
      <g id="sync-toggle" transform="translate(220, 0)">
        <circle cx="22" cy="22" r="22" fill="none" stroke="#7C5DFF" stroke-width="3"/>
        <text x="22" y="28" font-size="16" fill="#7C5DFF" text-anchor="middle" font-weight="600">&#8693;</text>
      </g>
      <g transform="translate(300, 0)">
        <circle cx="22" cy="22" r="22" fill="none" stroke="#A0A4AB" stroke-width="2.5"/>
        <text x="22" y="28" font-size="18" fill="#A0A4AB" text-anchor="middle">&#10227;</text>
      </g>
      <g transform="translate(380, 0)">
        <circle cx="22" cy="22" r="22" fill="none" stroke="#A0A4AB" stroke-width="2.5"/>
        <text x="22" y="28" font-size="16" fill="#A0A4AB" text-anchor="middle">EQ</text>
      </g>
      <g transform="translate(460, 0)">
        <circle cx="22" cy="22" r="22" fill="none" stroke="#A0A4AB" stroke-width="2.5"/>
        <text x="22" y="28" font-size="18" fill="#A0A4AB" text-anchor="middle">&#9737;</text>
      </g>
      <g transform="translate(540, 0)">
        <circle cx="22" cy="22" r="22" fill="none" stroke="#A0A4AB" stroke-width="2.5"/>
        <text x="22" y="28" font-size="18" fill="#A0A4AB" text-anchor="middle">&#9783;</text>
      </g>
      <g transform="translate(620, 0)">
        <circle cx="22" cy="22" r="22" fill="none" stroke="#A0A4AB" stroke-width="2.5"/>
        <text x="22" y="28" font-size="18" fill="#A0A4AB" text-anchor="middle">&#8943;</text>
      </g>
    </g>
  </g>

  <g id="annotations" font-family="sans-serif" font-size="12" fill="#5A5E66">
    <text x="60" y="1090" fill="#A0A4AB">v0.6.1 layout, cleaned up:</text>
    <text x="60" y="1106" fill="#A0A4AB">3 horizontal rows, 8dp grid, 48dp touch targets, big play button,</text>
    <text x="60" y="1122" fill="#A0A4AB">sync toggle in the existing 3rd row alongside CC/audio/rotate</text>
  </g>

  <g id="callouts" font-family="sans-serif" font-size="11" fill="#7C5DFF">
    <line x1="264" y1="1442" x2="430" y2="1442" stroke="#7C5DFF" stroke-width="1.5" stroke-dasharray="4,3"/>
    <text x="438" y="1446">NEW: sync toggle, in the same row as CC + audio,</text>
    <text x="438" y="1460">where it always lives, easy to find, never crowded</text>
  </g>
</svg>
